<svg width="20" height="20" viewBox="0 0 20 20" fill="none" xmlns="http://www.w3.org/2000/svg"><path fill-rule="evenodd" clip-rule="evenodd" d="M1.95154 2.6825C1.95154 2.13021 2.39925 1.6825 2.95154 1.6825H17.0484C17.6007 1.6825 18.0484 2.13021 18.0484 2.6825V17C18.0484 17.5523 17.6007 18 17.0484 18H2.95154C2.39925 18 1.95154 17.5523 1.95154 17V2.6825ZM3.49994 4.34131C3.49994 3.78902 3.94765 3.34131 4.49994 3.34131H9.49994V16.3413H4.49994C3.94765 16.3413 3.49994 15.8936 3.49994 15.3413V4.34131ZM15.5 3.34131H10.5V16.3413H15.5C16.0523 16.3413 16.5 15.8936 16.5 15.3413V4.34131C16.5 3.78902 16.0523 3.34131 15.5 3.34131Z" fill="black"/></svg>
